<svg width="72" height="72" viewBox="0 0 72 72" fill="none" xmlns="http://www.w3.org/2000/svg">
<path d="M19.2624 19.622C19.663 19.2218 19.907 18.4641 20.1429 17.7315L20.143 17.731C20.4798 16.6851 20.8281 15.6036 21.7249 15.0033C22.6544 14.3826 23.8617 14.4819 24.9269 14.5696L25.0015 14.5757C25.2537 14.5963 25.4779 14.7445 25.5957 14.9684L32.485 28.0684L33.248 29.5193L35.9991 34.7507L44.7741 18.0649L45.5693 16.5525L46.4024 14.9685C46.5201 14.7446 46.7444 14.5964 46.9967 14.5758L47.072 14.5696C48.1368 14.482 49.3438 14.3828 50.2725 15.003C51.1697 15.6032 51.5183 16.6852 51.8552 17.7313L51.8552 17.7316C52.0911 18.4641 52.335 19.2217 52.7357 19.6218C53.1363 20.022 53.8947 20.2656 54.6281 20.5012L54.6284 20.5013C55.5121 20.7852 56.4214 21.0773 57.0448 21.7C57.1602 21.8152 57.2657 21.9416 57.3594 22.0815C57.981 23.0095 57.8816 24.2161 57.7938 25.2807C57.7324 26.0266 57.6689 26.798 57.8721 27.2893C58.0829 27.7984 58.6829 28.3082 59.2631 28.8013L59.2636 28.8017C60.1083 29.5195 60.9818 30.2618 61.1947 31.334C61.4084 32.4158 60.8819 33.4387 60.3728 34.428L60.3724 34.4287C60.0264 35.101 59.6686 35.7962 59.6686 36.3385C59.6686 36.8815 60.0265 37.5771 60.3726 38.2497L60.3727 38.2499C60.8818 39.2393 61.4081 40.2624 61.1941 41.3432C60.9816 42.4163 60.108 43.1588 59.2632 43.8769L59.2627 43.8773C58.683 44.37 58.0834 44.8797 57.8728 45.3885C57.6693 45.8803 57.7327 46.6519 57.7941 47.3981L57.7941 47.3981C57.8817 48.4627 57.9809 49.6691 57.3598 50.5964C56.7588 51.4927 55.6759 51.8407 54.6286 52.177C53.8951 52.4126 53.1365 52.6564 52.7359 53.0565C52.3353 53.4566 52.0913 54.2143 51.8554 54.9469C51.5187 55.993 51.1703 57.0747 50.2733 57.6748C49.3445 58.2955 48.1368 58.1963 47.0711 58.1087L47.0704 58.1087L47.0704 58.1087C46.3236 58.0472 45.5514 57.9837 45.0596 58.1867C44.5499 58.3973 44.0397 58.9963 43.5462 59.5756L43.5457 59.5762L43.5454 59.5767C42.8267 60.4204 42.0836 61.2928 41.01 61.5054C39.927 61.7189 38.9027 61.1929 37.9121 60.6844L37.9117 60.6841L37.9115 60.684C37.2385 60.3385 36.5425 59.9811 35.9997 59.9811C35.4566 59.981 34.761 60.3378 34.0881 60.6829L34.0873 60.6833C33.6912 60.8866 33.2816 61.0966 32.8649 61.2584C32.4842 61.406 32.0557 61.2175 31.9077 60.8373C31.7598 60.457 31.9485 60.0289 32.3292 59.8812C32.674 59.7475 33.0318 59.564 33.4106 59.3697L33.4117 59.3691C34.2412 58.9436 35.0988 58.5036 35.9997 58.5036C36.9006 58.5037 37.7585 58.9442 38.588 59.3702C39.3537 59.7634 40.1454 60.17 40.723 60.0562C41.2907 59.9437 41.8642 59.2704 42.4189 58.6191L42.419 58.619C43.0264 57.9059 43.6544 57.1685 44.4943 56.8215C45.3167 56.4821 46.2697 56.5605 47.1915 56.6363L47.1916 56.6363C48.0565 56.7074 48.951 56.7809 49.4504 56.4472C49.9195 56.1332 50.1878 55.3003 50.4471 54.4946L50.4471 54.4945C50.7368 53.5948 51.0364 52.6644 51.6898 52.0118C52.3433 51.3591 53.2747 51.0599 54.1755 50.7705L54.1756 50.7705C54.9822 50.5114 55.8161 50.2434 56.1307 49.7745C56.4646 49.2761 56.3911 48.3829 56.3199 47.5191L56.3199 47.5182C56.2441 46.5975 56.1659 45.6453 56.5058 44.8241C56.8529 43.9855 57.5907 43.3584 58.3042 42.7521C58.9564 42.1979 59.6306 41.6248 59.7432 41.0566C59.8573 40.4803 59.4505 39.6897 59.0572 38.9252L59.0571 38.9251C58.6306 38.0962 58.1896 37.2391 58.1896 36.3385C58.1896 35.4389 58.6304 34.5823 59.0567 33.7538L59.0571 33.7532L59.0571 33.7531C59.4507 32.9884 59.8578 32.1977 59.7439 31.6209C59.6312 31.0538 58.9571 30.4808 58.305 29.9268C57.5911 29.3203 56.8527 28.6928 56.5053 27.8538C56.1655 27.0325 56.244 26.0804 56.3198 25.1598L56.3199 25.1597C56.391 24.2958 56.4645 23.4025 56.1305 22.9036C55.816 22.4349 54.9825 22.1672 54.1763 21.9083L54.1757 21.9081L54.1756 21.908C53.2748 21.6187 52.3433 21.3194 51.6899 20.6668C51.0365 20.0141 50.7369 19.0837 50.4472 18.1839L50.446 18.1803C50.187 17.376 49.9193 16.5448 49.4499 16.2311C49.014 15.9401 48.2776 15.9592 47.5224 16.016L45.7283 19.4275C47.2133 20.2816 48.5815 21.3299 49.8038 22.5507C57.4158 30.1539 57.4158 42.525 49.804 50.1279C42.1921 57.7309 29.8065 57.7309 22.1945 50.1278C18.6963 46.6336 16.6702 41.9914 16.4893 37.0564C16.3097 32.1476 17.9655 27.396 21.152 23.677C21.4176 23.3672 21.8844 23.3308 22.1948 23.5961C22.5057 23.8629 22.5414 24.3278 22.2758 24.6376C19.3315 28.0741 17.8014 32.4653 17.9675 37.0024C18.1346 41.5633 20.0072 45.8536 23.2404 49.0831C30.2757 56.1102 41.7232 56.1105 48.7583 49.0835C55.7935 42.0566 55.7934 30.6227 48.7582 23.5957C47.6416 22.4804 46.3933 21.5213 45.0401 20.7372L36.6542 36.683C36.5265 36.926 36.2744 37.0781 35.9996 37.0782C35.7248 37.078 35.4726 36.926 35.3448 36.683L26.9594 20.7383C26.0132 21.2869 25.1154 21.9209 24.2846 22.6319C23.9746 22.8974 23.5083 22.8629 23.2418 22.5516C22.976 22.2418 23.0121 21.7755 23.3222 21.51C24.237 20.727 25.227 20.0301 26.271 19.4293L24.476 16.0161C23.7209 15.9592 22.9843 15.9402 22.5479 16.2316C22.0789 16.5454 21.8107 17.3783 21.5513 18.184L21.5513 18.1841C21.2616 19.0838 20.962 20.0142 20.3086 20.6668C19.6552 21.3195 18.7238 21.6187 17.823 21.9081L17.8229 21.9081C17.0162 22.1672 16.1823 22.4352 15.8677 22.9041C15.5339 23.4025 15.6074 24.2957 15.6785 25.1595L15.6786 25.1604C15.7543 26.0812 15.8326 27.0333 15.4926 27.8545C15.1455 28.6931 14.4078 29.3202 13.6942 29.9265C13.042 30.4807 12.3679 31.0538 12.2552 31.622C12.1412 32.1983 12.5479 32.9889 12.9413 33.7534L12.9413 33.7535C13.3679 34.5824 13.8089 35.4395 13.8089 36.3401C13.8089 37.2397 13.3681 38.0963 12.9417 38.9247L12.9414 38.9254L12.9413 38.9255C12.5477 39.6902 12.1406 40.4809 12.2546 41.0577C12.3671 41.6245 13.0408 42.1971 13.6927 42.7512L13.6935 42.7518C14.4073 43.3584 15.1457 43.9859 15.4931 44.8248C15.8329 45.6461 15.7545 46.5982 15.6786 47.5188L15.6786 47.5189C15.6075 48.3828 15.5339 49.2762 15.8679 49.775C16.1826 50.2435 17.0163 50.5114 17.8228 50.7705L17.8228 50.7706C18.7237 51.06 19.6551 51.3592 20.3085 52.0118C20.962 52.6645 21.2615 53.5948 21.5513 54.4946L21.5513 54.4947L21.5515 54.4953C21.8108 55.3006 22.079 56.1338 22.5485 56.4475C23.0474 56.7808 23.9416 56.7076 24.8064 56.6365L24.8073 56.6364C25.7292 56.5608 26.6824 56.4826 27.5046 56.8222C28.3436 57.1691 28.9708 57.9052 29.5774 58.617L29.5778 58.6175L29.5796 58.6196C29.8518 58.939 30.1092 59.241 30.3724 59.4929C30.6673 59.7765 30.6771 60.2429 30.3944 60.5374C30.1117 60.832 29.6436 60.8418 29.3487 60.5595C29.0312 60.2548 28.7362 59.9094 28.4513 59.5751L28.4509 59.5746C27.958 58.9963 27.4482 58.3981 26.9391 58.1876C26.4471 57.9845 25.6746 58.0478 24.9274 58.1091C23.8618 58.1966 22.654 58.2957 21.7255 57.6753C20.8283 57.0756 20.4804 55.9949 20.1438 54.9496L20.143 54.9472L20.1429 54.9469C19.907 54.2143 19.6631 53.4568 19.2625 53.0567C18.8619 52.6565 18.1035 52.4129 17.3701 52.1773L17.3698 52.1772L17.369 52.1769C16.3219 51.8405 15.2392 51.4926 14.6387 50.597C14.0172 49.669 14.1166 48.4623 14.2044 47.3977C14.2658 46.6519 14.3293 45.8805 14.1261 45.3892C13.9152 44.8799 13.3153 44.3701 12.735 43.8772L12.7346 43.8768C11.8899 43.1589 11.0165 42.4168 10.8035 41.3444C10.5898 40.2627 11.1162 39.2398 11.6254 38.2505L11.6257 38.2498C11.9718 37.5774 12.3296 36.8823 12.3296 36.34C12.3295 35.7969 11.9717 35.1014 11.6256 34.4288L11.6255 34.4286C11.1164 33.4391 10.59 32.416 10.8041 31.3353C11.0166 30.2622 11.8902 29.5196 12.735 28.8015L12.7355 28.8012C13.3153 28.3084 13.9148 27.7987 14.1255 27.2899C14.3289 26.7981 14.2655 26.0265 14.2041 25.2803L14.2041 25.2803C14.1165 24.2157 14.0173 23.0093 14.6384 22.082C15.2395 21.1857 16.3225 20.8378 17.3697 20.5014C18.1032 20.2659 18.8618 20.0221 19.2624 19.622Z" fill="black"/>
<path d="M24.4093 43.5946C25.8488 44.1516 27.3046 44.0737 28.5086 43.3756C29.7127 42.6775 30.5021 41.4533 30.7316 39.9285C30.7673 39.6907 30.6851 39.4578 30.523 39.2961C30.452 39.2252 30.3656 39.1679 30.2673 39.1298C28.8279 38.573 27.3721 38.6508 26.1681 39.3489C24.9641 40.047 24.1747 41.2713 23.945 42.796C23.8937 43.1379 24.0867 43.4697 24.4093 43.5946ZM26.9109 40.6266C27.5569 40.252 28.3275 40.1499 29.1282 40.3245C28.883 41.1054 28.4123 41.7232 27.7661 42.0979C27.12 42.4727 26.3494 42.5746 25.5487 42.4001C25.7939 41.6191 26.2647 41.0012 26.9109 40.6266Z" fill="black"/>
<path d="M47.8474 29.2506C47.7764 29.1797 47.6901 29.1223 47.5917 29.0844C46.1523 28.5275 44.6964 28.6052 43.4925 29.3034C42.2886 30.0015 41.499 31.2257 41.2694 32.7505C41.2179 33.0926 41.4109 33.4244 41.7337 33.5492C43.1731 34.1062 44.6289 34.0283 45.8329 33.3301C47.0369 32.6321 47.8264 31.4078 48.056 29.8831C48.0918 29.6453 48.0094 29.4124 47.8474 29.2506ZM45.0903 32.0523C44.4441 32.4271 43.6736 32.5291 42.873 32.3545C43.1182 31.5735 43.589 30.9556 44.235 30.581C44.8811 30.2064 45.6517 30.1043 46.4523 30.2789C46.2071 31.0599 45.7365 31.6777 45.0903 32.0523Z" fill="black"/>
<path d="M36.4772 42.6914C36.2064 42.476 35.8223 42.4769 35.5527 42.6937C34.35 43.6603 33.6896 44.9585 33.6929 46.349C33.6962 47.7396 34.3625 49.0344 35.5703 49.9957C35.8411 50.2111 36.2252 50.2102 36.4949 49.9934C37.6975 49.0267 38.3579 47.7285 38.3545 46.3378L38.3546 46.3379C38.3517 45.144 37.8599 44.0205 36.9568 43.1186C36.808 42.97 36.648 42.8273 36.4772 42.6914ZM36.8753 46.3414C36.8772 47.0877 36.5804 47.8053 36.0287 48.4105C35.4742 47.8079 35.1738 47.0917 35.172 46.3455C35.1703 45.5993 35.467 44.8818 36.0187 44.2765C36.5732 44.879 36.8736 45.5952 36.8753 46.3414Z" fill="black"/>
<path d="M43.5269 43.3398C44.7343 44.0322 46.1904 44.103 47.6272 43.5391C47.9494 43.4127 48.1407 43.08 48.0875 42.7383C47.9162 41.636 47.4525 40.6923 46.7519 39.9926C46.4841 39.7251 46.1817 39.4932 45.848 39.3018C44.6407 38.6095 43.1845 38.5386 41.7477 39.1024C41.4254 39.2288 41.2341 39.5616 41.2872 39.9033C41.5242 41.4269 42.3194 42.6472 43.5269 43.3398ZM45.1113 40.583C45.1114 40.583 45.1114 40.583 45.1113 40.583C45.7594 40.9544 46.233 41.5702 46.4821 42.3499C45.6824 42.5284 44.9113 42.43 44.2634 42.0585C43.6154 41.6869 43.1419 41.0715 42.8927 40.2915C43.6925 40.1131 44.4635 40.2115 45.1113 40.583Z" fill="black"/>
<path d="M26.1528 33.3771C27.36 34.0694 28.8163 34.1404 30.2531 33.5766C30.5754 33.4502 30.7667 33.1174 30.7136 32.7757C30.5422 31.6733 30.0784 30.7298 29.3778 30.03C29.11 29.7625 28.8077 29.5307 28.4739 29.3393C27.2666 28.6469 25.8103 28.576 24.3736 29.1399C24.0514 29.2663 23.8601 29.599 23.9133 29.9407C24.1501 31.4642 24.9453 32.6847 26.1528 33.3771ZM27.7375 30.6205C28.3857 30.9921 28.8591 31.6077 29.1082 32.3874C28.3083 32.5659 27.5373 32.4675 26.8893 32.0959C26.2415 31.7243 25.7678 31.1088 25.5188 30.329C26.3184 30.1506 27.0895 30.249 27.7375 30.6205Z" fill="black"/>
</svg>
