<svg width="74" height="74" viewBox="0 0 74 74" fill="none" xmlns="http://www.w3.org/2000/svg">
<path d="M68.0893 49.2759C66.4159 50.4415 64.4927 51.1992 62.4739 51.4884C60.4551 51.7775 58.3966 51.59 56.4632 50.9409C56.2881 50.8785 56.1005 50.8593 55.9163 50.8848C55.7321 50.9104 55.5568 50.98 55.4053 51.0877L50.2021 54.7773L51.5411 56.6632L56.2621 53.3101C58.4685 53.9546 60.791 54.0988 63.0603 53.7321C65.3296 53.3655 67.4885 52.4972 69.3797 51.1907C70.0611 50.7303 70.707 50.2193 71.3118 49.6621L69.7439 47.9624C69.2264 48.4415 68.6733 48.8806 68.0893 49.2759Z" fill="white"/>
<path d="M56.4461 32.0201C54.7912 33.0774 53.4655 34.5772 52.6192 36.3494C51.773 38.1215 51.44 40.0953 51.6581 42.0471L37.0003 51.4427L22.3402 42.0528C22.5629 40.1005 22.2316 38.1248 21.384 36.352C20.5364 34.5791 19.2069 33.0807 17.5475 32.0282C15.3449 30.51 12.6664 29.842 10.0088 30.1481C8.75517 30.2708 7.54413 30.6688 6.46211 31.3136C5.38009 31.9585 4.45379 32.8342 3.74935 33.8784C3.0449 34.9226 2.57969 36.1095 2.38692 37.3542C2.19416 38.599 2.2786 39.8709 2.63421 41.0793C3.3466 43.6568 4.96977 45.8884 7.20256 47.36C8.80127 48.5061 10.6906 49.1783 12.6539 49.2995C14.6172 49.4208 16.575 48.9862 18.3026 48.0457L29.6812 56.1244L18.8529 63.0677C18.3411 63.3929 17.8997 63.8175 17.555 64.3164C17.2103 64.8154 16.9693 65.3784 16.8461 65.9722C16.723 66.5659 16.7203 67.1784 16.8382 67.7732C16.9561 68.3681 17.1922 68.9332 17.5325 69.4351C17.8715 69.936 18.3071 70.3641 18.8139 70.6942C19.3206 71.0243 19.8882 71.2499 20.4833 71.3576C21.0784 71.4653 21.6891 71.453 22.2794 71.3214C22.8697 71.1898 23.4277 70.9416 23.9208 70.5914L37.0003 61.316L50.0798 70.5983C50.5734 70.9594 51.1348 71.2171 51.7303 71.3561C52.3259 71.495 52.9434 71.5123 53.5458 71.4069C54.1482 71.3015 54.7232 71.0756 55.2362 70.7427C55.7492 70.4098 56.1898 69.9768 56.5314 69.4696C56.8731 68.9624 57.1089 68.3914 57.2246 67.7909C57.3404 67.1904 57.3337 66.5727 57.205 65.9748C57.0764 65.3769 56.8283 64.8112 56.4758 64.3114C56.1233 63.8117 55.6735 63.3883 55.1534 63.0665L44.3124 56.129L55.6992 48.0468C57.4265 48.9877 59.3841 49.4227 61.3474 49.3018C63.3107 49.181 65.2002 48.5092 66.7991 47.3635C71.5513 44.1561 73.103 38.1042 70.2552 33.8724C67.4073 29.6405 61.2087 28.8126 56.4461 32.0201ZM22.5818 68.7102C22.0878 69.0427 21.4834 69.169 20.8975 69.0621C20.3116 68.9551 19.7908 68.6235 19.4461 68.1378C19.2792 67.8917 19.1635 67.6145 19.1058 67.3228C19.048 67.0311 19.0494 66.7308 19.1099 66.4397C19.1704 66.1485 19.2888 65.8725 19.4579 65.6279C19.6271 65.3834 19.8436 65.1753 20.0947 65.016L31.7139 57.5651L34.9965 59.8938L22.5818 68.7102ZM54.8875 66.4405C54.9781 66.8792 54.9345 67.335 54.7625 67.7486C54.5905 68.1622 54.298 68.5145 53.923 68.7596C53.5481 69.0047 53.108 69.1313 52.6601 69.1229C52.2123 69.1145 51.7773 68.9715 51.4118 68.7125L18.9917 45.7031C18.794 45.5629 18.5573 45.4884 18.3149 45.4901C18.0726 45.4917 17.8369 45.5695 17.6412 45.7124C16.2714 46.6063 14.6609 47.0596 13.026 47.0115C11.391 46.9633 9.81 46.416 8.49524 45.443C6.72629 44.2826 5.43802 42.5203 4.86924 40.4827C4.59708 39.5925 4.52737 38.6528 4.66521 37.7323C4.80305 36.8118 5.14496 35.9337 5.66591 35.1624C6.18687 34.391 6.87369 33.7459 7.67611 33.2743C8.47854 32.8026 9.37627 32.5163 10.3036 32.4363C12.4057 32.2004 14.5221 32.7344 16.2606 33.9394C17.6543 34.7948 18.7528 36.0561 19.4089 37.5539C20.0649 39.0518 20.2469 40.7145 19.9306 42.3188C19.8711 42.5539 19.8871 42.8019 19.9764 43.0274C20.0656 43.253 20.2235 43.4448 20.4277 43.5756L53.9058 65.0148C54.1569 65.1742 54.3733 65.3826 54.542 65.6276C54.7106 65.8725 54.8282 66.149 54.8875 66.4405ZM65.5018 45.4406C64.1867 46.4134 62.6053 46.9604 60.9702 47.0082C59.335 47.0559 57.7244 46.6021 56.3547 45.7077C56.159 45.5649 55.9233 45.4871 55.681 45.4855C55.4386 45.4838 55.2019 45.5583 55.0042 45.6985L42.2126 54.7797L39.1463 52.8141L53.5693 43.5641C53.7731 43.4333 53.9307 43.2419 54.0199 43.0168C54.1091 42.7918 54.1254 42.5444 54.0665 42.3095C53.7565 40.7049 53.9419 39.044 54.5982 37.5473C55.2546 36.0507 56.3507 34.7891 57.7411 33.9302C61.4411 31.4362 66.1979 31.9865 68.3358 35.1535C70.4737 38.3205 69.2007 42.9466 65.5018 45.4406Z" fill="white"/>
<path d="M14.9471 4.43193L13.6671 2.50562C10.874 4.35632 8.77942 7.08716 7.71586 10.2644C6.6523 13.4417 6.68079 16.8832 7.79681 20.0425L9.97634 19.2701C9.03265 16.5965 9.00935 13.6842 9.91015 10.9959C10.811 8.3075 12.5842 5.9972 14.9482 4.43193H14.9471Z" fill="white"/>
<path d="M12.4296 23.4349C11.8729 22.8033 11.3795 22.1186 10.9565 21.3906L8.95508 22.5469C9.45444 23.4075 10.0373 24.217 10.6952 24.9634L12.4296 23.4349Z" fill="white"/>
<path d="M49.6956 41.8561L52.9875 25.3981C55.6638 25.1652 58.1464 23.9063 59.9157 21.8849C61.6851 19.8635 62.6042 17.2361 62.4806 14.5525C62.3571 11.8689 61.2006 9.33706 59.253 7.48672C57.3054 5.63637 54.7176 4.61091 52.0312 4.62489C49.6932 4.61661 47.4223 5.40582 45.5932 6.86223C44.6406 5.46052 43.3595 4.31314 41.8617 3.52011C40.3639 2.72709 38.6948 2.3125 37 2.3125C35.3052 2.3125 33.6361 2.72709 32.1383 3.52011C30.6405 4.31314 29.3594 5.46052 28.4067 6.86223C26.5777 5.40582 24.3068 4.61661 21.9687 4.62489C19.2915 4.62464 16.7172 5.65622 14.781 7.50516C12.8448 9.3541 11.6957 11.8781 11.5725 14.5525C11.4494 17.2269 12.3617 19.8459 14.1199 21.8649C15.878 23.8839 18.3466 25.1477 21.0125 25.3934L24.3044 41.8561L26.5706 41.4029L25.9231 38.1561H48.0769L47.4294 41.3936L49.6956 41.8561ZM44.1144 35.8436L45.0822 29.0703L42.7928 28.7419L41.7788 35.8436H38.1562V23.1249H35.8437V35.8436H32.2212L31.2072 28.7419L28.9178 29.0703L29.8856 35.8436H25.4606L23.1019 24.0499C23.0486 23.7887 22.9067 23.554 22.7002 23.3854C22.4937 23.2169 22.2353 23.1248 21.9687 23.1249C19.8222 23.1249 17.7635 22.2722 16.2456 20.7543C14.7277 19.2364 13.875 17.1777 13.875 15.0311C13.875 12.8845 14.7277 10.8259 16.2456 9.30799C17.7635 7.79012 19.8222 6.93739 21.9687 6.93739C23.0706 6.93456 24.1613 7.159 25.1725 7.59668C26.1837 8.03436 27.0938 8.67587 27.846 9.48114C27.9745 9.61704 28.134 9.71973 28.311 9.78041C28.4879 9.84109 28.6769 9.85794 28.8618 9.82952C29.0467 9.80109 29.2219 9.72824 29.3724 9.61722C29.5229 9.50619 29.6443 9.36031 29.726 9.19207C30.3865 7.82415 31.4194 6.6702 32.706 5.86269C33.9927 5.05517 35.4809 4.62683 37 4.62683C38.519 4.62683 40.0073 5.05517 41.2939 5.86269C42.5806 6.6702 43.6134 7.82415 44.274 9.19207C44.3557 9.36031 44.4771 9.50619 44.6276 9.61722C44.7781 9.72824 44.9533 9.80109 45.1382 9.82952C45.3231 9.85794 45.5121 9.84109 45.689 9.78041C45.8659 9.71973 46.0255 9.61704 46.154 9.48114C46.9062 8.67587 47.8163 8.03436 48.8275 7.59668C49.8387 7.159 50.9294 6.93456 52.0312 6.93739C54.1778 6.93739 56.2365 7.79012 57.7544 9.30799C59.2723 10.8259 60.125 12.8845 60.125 15.0311C60.125 17.1777 59.2723 19.2364 57.7544 20.7543C56.2365 22.2722 54.1778 23.1249 52.0312 23.1249C51.7647 23.1248 51.5063 23.2169 51.2998 23.3854C51.0933 23.554 50.9514 23.7887 50.8981 24.0499L48.5394 35.8436H44.1144Z" fill="white"/>
</svg>
