<svg width="74" height="70" viewBox="0 0 74 70" fill="none" xmlns="http://www.w3.org/2000/svg">
<g clip-path="url(#clip0)">
<path d="M59.1748 10.8608L61.5204 10.1384L63.9293 17.139L61.5837 17.8608L59.1748 10.8608Z" fill="white"/>
<path d="M55.5605 19.0287L57.9062 18.3064L60.3156 25.3058L57.97 26.0287L55.5605 19.0287Z" fill="white"/>
<path d="M13.9719 22.4318C13.7117 24.2143 14.2615 26.0179 15.4864 27.3947L17.2672 29.5076V49.0003H19.7339V31.3476L21.5158 32.471C21.9307 32.7325 22.4703 32.7325 22.8852 32.471L25.9005 30.5672L28.9158 32.4687C29.3307 32.7302 29.8703 32.7302 30.2852 32.4687L33.3005 30.5672L36.3158 32.4687C36.7307 32.7302 37.2703 32.7302 37.6852 32.4687L40.7005 30.5672L43.7158 32.4687C44.1307 32.7302 44.6703 32.7302 45.0852 32.4687L48.1005 30.5672L50.5672 32.1223V67.6669H23.4339V70.0003H57.9672C61.3715 69.9963 64.1296 67.3872 64.1339 64.1669V29.1669C64.1308 28.9106 64.0375 28.6622 63.8689 28.4611L70.9961 10.5122C71.9554 8.10086 71.6043 5.39839 70.0566 3.27868C68.586 1.2222 66.1302 -0.00712818 63.5063 0.00027741C60.1617 0.0298998 57.1825 2.00662 56.0148 4.97171L54.0811 9.84118L51.8005 7.68387V3.50028C51.8005 2.85599 51.2483 2.33361 50.5672 2.33361H37.0005C36.3194 2.33361 35.7672 2.85599 35.7672 3.50028V5.50207C34.3731 4.30692 32.2701 4.23913 30.7929 5.34256V3.50028C30.7929 1.59077 29.1567 0.0424323 27.1375 0.0424323C25.1188 0.0424323 23.482 1.59077 23.482 3.50028V5.3437C22.807 4.81449 21.9572 4.5251 21.0804 4.52681C20.0627 4.52453 19.0871 4.91304 18.3771 5.60404C16.9143 7.0299 16.9053 9.29487 18.356 10.7316L19.5044 11.8527C19.0865 12.0338 18.7071 12.2856 18.3849 12.5955L18.3771 12.6L18.365 12.612C18.0778 12.8911 17.8399 13.2124 17.6616 13.5639L16.2561 11.1081L14.0863 12.2189L17.2756 17.7874C17.1329 17.8643 16.9896 17.9389 16.8541 18.0266C16.8035 18.0591 16.7589 18.0967 16.7095 18.1292L11.937 13.9689L10.2646 15.6848L15.0053 19.8194C14.4609 20.6072 14.108 21.4993 13.9719 22.4318ZM40.0158 28.1962L37.0005 30.1L33.9852 28.1985C33.5703 27.937 33.0307 27.937 32.6158 28.1985L29.6288 30.083C29.6216 29.9662 29.6005 29.8648 29.6005 29.7526C29.5927 27.1885 31.5493 24.9959 34.2225 24.5732C36.8963 24.1499 39.5003 25.6208 40.3747 28.0481C40.2477 28.0795 40.1266 28.129 40.0158 28.1962ZM43.1672 29.3207L43.1437 29.3059C42.9956 26.8535 41.599 24.6216 39.3973 23.3188C37.1962 22.016 34.4634 21.8041 32.0672 22.7503V15.1669H43.1672V29.3207ZM61.6672 64.1669C61.6672 66.0998 60.0105 67.6669 57.9672 67.6669H53.0339V32.1246L55.5005 30.5672L58.5158 32.4687C58.9307 32.7302 59.4703 32.7302 59.8852 32.4687L61.6672 31.3476V64.1669ZM58.3237 5.79146C59.1277 3.73498 61.1884 2.36038 63.5063 2.33361C65.319 2.33019 67.0142 3.1807 68.029 4.60143C69.1178 6.09338 69.3635 7.99548 68.6872 9.69193L61.0505 28.9334L59.2005 30.1L56.1852 28.1985C55.7703 27.937 55.2307 27.937 54.8158 28.1985L51.8005 30.1L49.2983 28.5221L58.3237 5.79146ZM53.129 12.24L46.5835 28.7215L45.6339 29.3207V14.4833L50.5672 9.81668L53.129 12.24ZM38.2339 4.66694H49.3339V7.00028H38.2339V4.66694ZM37.5112 9.33361H47.5898L43.8898 12.8336H33.8112L37.5112 9.33361ZM20.1373 7.24067C20.3848 6.99914 20.7251 6.86242 21.0804 6.86242C21.4363 6.86299 21.7766 6.99914 22.0241 7.24067L23.8349 8.99067C24.1866 9.33019 24.7208 9.4333 25.1851 9.25272C25.6494 9.07157 25.9517 8.64204 25.9487 8.16694V3.50028C25.9288 3.08613 26.151 2.69535 26.5268 2.48286C26.9032 2.26981 27.3723 2.26981 27.7481 2.48286C28.1245 2.69535 28.3467 3.08613 28.3262 3.50028V8.16694C28.3268 8.64033 28.6298 9.06644 29.0935 9.24531C29.5566 9.42476 30.0883 9.32108 30.4394 8.98384L32.2557 7.23384C32.776 6.74906 33.6107 6.74906 34.1304 7.23384C34.6663 7.7528 34.6663 8.58109 34.1304 9.10005L30.4972 12.6L30.534 12.6354L29.9618 13.1765C29.8625 13.2734 29.7824 13.3862 29.724 13.5092C29.7065 13.5451 29.6969 13.5816 29.683 13.6186C29.6463 13.7183 29.624 13.822 29.6168 13.9268C29.6168 13.9524 29.6017 13.9735 29.6017 13.9991V24.2901C29.3211 24.5441 29.0603 24.817 28.8225 25.107L26.4925 20.4169C25.6325 18.7985 24.0782 17.6079 22.2252 17.1505C21.794 17.0451 21.352 16.9813 20.907 16.9614L20.5908 16.611C20.3445 16.3439 20.1584 16.1354 20.1283 16.1063C19.8097 15.7907 19.6718 15.3487 19.7585 14.9197C19.8043 14.6759 19.9229 14.4503 20.1 14.2686L20.1223 14.2486L20.153 14.2173C20.5998 13.8032 21.2918 13.7422 21.8121 14.0703C22.3354 14.4013 23.0376 14.3062 23.4423 13.8505C23.847 13.3942 23.8235 12.7237 23.3881 12.2936L20.1283 9.11087C19.599 8.58678 19.6032 7.7602 20.1373 7.24067ZM16.4163 22.7503C16.5771 21.6195 17.2389 20.6066 18.2368 19.9652C19.2262 19.3323 20.4553 19.1318 21.6122 19.4149C22.7684 19.6986 23.7404 20.4386 24.28 21.4469L27.4235 27.781C27.3458 28.0538 27.2844 28.3307 27.2398 28.6104L26.5901 28.1997C26.1757 27.9382 25.6355 27.9382 25.2212 28.1997L22.2005 30.1L19.4653 28.3734L19.2009 28.0601L22.3806 25.7347L20.8708 23.889L17.6646 26.2349L17.3906 25.9119C16.606 25.0369 16.2519 23.8873 16.4163 22.7503Z" fill="white"/>
<path d="M5.10028 67.0902C6.03732 68.8784 7.96802 70.0069 10.0776 70.0001C10.9417 69.9989 11.7933 69.8087 12.5665 69.4447L13.5668 68.9713L14.5683 69.4447C15.3409 69.8087 16.1925 69.9989 17.056 70.0001C19.1662 70.0069 21.0963 68.8784 22.0339 67.0902L22.4639 66.2739C23.908 63.5327 24.662 60.5129 24.6668 57.4504C24.6626 54.0735 21.7702 51.3374 18.2002 51.3334C16.997 51.3368 15.8185 51.6598 14.8001 52.2665V51.3334C14.8001 48.7563 12.5912 46.6667 9.8668 46.6667V49.0001C11.229 49.0001 12.3335 50.0448 12.3335 51.3334V52.2665C11.3151 51.6598 10.1366 51.3368 8.93337 51.3334C5.36344 51.3374 2.47101 54.0735 2.4668 57.4504C2.47101 60.5135 3.22498 63.5344 4.66969 66.2762L5.10028 67.0902ZM8.93337 53.6667C9.99447 53.6639 11.0128 54.0632 11.7614 54.7753L12.6948 55.6583C13.1766 56.1134 13.957 56.1134 14.4388 55.6583L15.3722 54.7753C16.5164 53.6929 18.2364 53.3694 19.7311 53.955C21.2258 54.5406 22.2001 55.9203 22.2001 57.4504C22.1971 60.1518 21.5323 62.8155 20.2574 65.2331L19.8274 66.05C19.3041 67.0441 18.2297 67.6707 17.056 67.6667C16.5755 67.6662 16.1015 67.5602 15.6709 67.3574L14.1184 66.6225C13.7709 66.4585 13.3626 66.4585 13.0158 66.6225L11.4639 67.3574C11.0333 67.5602 10.5587 67.6662 10.0776 67.6667C8.90326 67.6702 7.82831 67.0418 7.30619 66.0461L6.87621 65.2297C5.60192 62.8132 4.93708 60.1506 4.93346 57.4504C4.93648 55.3621 6.72565 53.6696 8.93337 53.6667Z" fill="white"/>
</g>
<defs>
<clipPath id="clip0">
<rect width="74" height="70" fill="white" transform="translate(0 0.000244141)"/>
</clipPath>
</defs>
</svg>
