<svg width="43" height="43" viewBox="0 0 43 43" fill="none" xmlns="http://www.w3.org/2000/svg">
<g clip-path="url(#clip0)">
<path d="M21.4999 42.6005C33.1534 42.6005 42.6005 33.1535 42.6005 21.5C42.6005 9.8465 33.1534 0.399475 21.4999 0.399475C9.84644 0.399475 0.399414 9.8465 0.399414 21.5C0.399414 33.1535 9.84644 42.6005 21.4999 42.6005Z" fill="white" stroke="#231F20" stroke-miterlimit="10"/>
<path d="M13.6064 13.5583C15.1884 12.9751 16.8662 12.6955 18.536 12.5037C20.2138 12.3359 21.8996 12.28 23.5934 12.3519C25.2792 12.4238 26.989 12.5357 28.6349 13.071C29.0423 13.2068 29.4498 13.3666 29.8413 13.5663C30.2328 13.774 30.6403 13.9818 30.9439 14.3813C31.1037 14.565 31.2235 14.8287 31.2315 15.1083C31.2395 15.3879 31.0957 15.6436 30.9359 15.8114C30.5923 16.147 30.1928 16.3227 29.7934 16.4506L29.7614 16.3787C30.105 16.147 30.4565 15.8993 30.6562 15.5877C30.8799 15.2761 30.7841 14.9885 30.5284 14.7568C30.0011 14.2854 29.1782 14.0377 28.4032 13.838C26.8292 13.4385 25.1993 13.1429 23.5455 12.9911C21.8917 12.8393 20.2218 12.8153 18.56 12.9032C16.8982 12.9911 15.2283 13.1588 13.6304 13.6382L13.6064 13.5583Z" fill="#231F20"/>
<path d="M29.8171 16.4026C29.13 16.7941 28.4908 16.9539 27.7957 17.1457C27.1086 17.3214 26.4135 17.4573 25.7185 17.5611C24.3203 17.7769 22.9061 17.8887 21.492 17.9207C20.0778 17.9446 18.6556 17.8967 17.2495 17.7449C15.8353 17.5851 14.4292 17.3614 13.0549 16.8501L12.0962 16.4905L13.1029 16.2429C15.8513 15.5557 18.6636 15.2681 21.468 15.2921C22.8742 15.324 24.2723 15.388 25.6705 15.5637C27.0687 15.7475 28.4109 15.9392 29.8171 16.4026ZM29.7372 16.4186C28.4189 16.3148 26.9888 16.155 25.6146 16.115C24.2324 16.0671 22.8502 16.0351 21.468 16.091C20.0858 16.115 18.7036 16.1869 17.3294 16.2908C15.9552 16.4026 14.581 16.5704 13.2467 16.866L13.2946 16.2588C14.549 16.7702 15.9312 17.0418 17.3134 17.2336C18.6956 17.4253 20.0938 17.5052 21.492 17.5212C22.8901 17.5372 24.2963 17.4812 25.6865 17.3294C27.0607 17.1776 28.4908 16.882 29.7372 16.4186Z" fill="#231F20"/>
<path d="M29.7853 16.3707C30.9997 16.6183 32.2381 16.89 33.3327 17.5451C33.5963 17.7209 33.868 17.9286 34.0357 18.2482C34.2115 18.5678 34.1396 19.0072 33.9239 19.2789C33.5004 19.8302 32.8932 20.1018 32.326 20.3655C29.961 21.2923 27.4523 21.6118 24.9675 21.8355C22.4748 22.0353 19.9661 22.0992 17.4733 21.8276C16.2269 21.6678 14.9885 21.492 13.7661 21.1724C12.5597 20.8448 11.3213 20.4693 10.3066 19.7023L10.3546 19.6384C10.9059 19.918 11.4891 20.1178 12.0803 20.2536C12.6716 20.4054 13.2708 20.5332 13.886 20.6211C15.1004 20.8209 16.3228 20.9567 17.5452 21.0286C19.998 21.1964 22.4668 21.3082 24.9276 21.1964C27.3804 21.0526 29.8732 20.8129 32.1742 19.99C32.7254 19.7662 33.3167 19.5106 33.6682 19.0791C33.844 18.8634 33.8919 18.6078 33.7881 18.3601C33.6762 18.1204 33.4525 17.9127 33.2048 17.7369C32.1981 17.0658 30.9677 16.7302 29.7693 16.4426L29.7853 16.3707Z" fill="#231F20"/>
<path d="M13.167 16.5544C13.159 16.5544 13.1511 16.5624 13.1431 16.5624" stroke="#231F20" stroke-miterlimit="10"/>
<path d="M19.239 11.1055C20.2186 11.1055 21.0127 10.3114 21.0127 9.33186C21.0127 8.35227 20.2186 7.55817 19.239 7.55817C18.2594 7.55817 17.4653 8.35227 17.4653 9.33186C17.4653 10.3114 18.2594 11.1055 19.239 11.1055Z" fill="#F40C34"/>
<path d="M23.2498 3.34766C22.2511 3.45153 21.2205 3.73116 20.3656 4.28244C19.9421 4.56208 19.5666 4.92161 19.311 5.37702C19.0473 5.83243 18.9914 6.35974 18.9834 6.87906C18.9594 6.35974 18.9834 5.81645 19.2231 5.32908C19.4548 4.8497 19.8223 4.44224 20.2537 4.12265C20.6852 3.80307 21.1646 3.55539 21.6599 3.36364C22.1633 3.17988 22.6666 3.03607 23.2099 2.94818L23.2498 3.34766Z" fill="#231F20"/>
<path d="M32.6455 22.3309L30.5362 32.1502C30.5362 33.3406 26.4935 34.3073 21.5 34.3073C16.5065 34.3073 12.4637 33.3406 12.4637 32.1502L10.3545 22.3309C10.3545 22.323 10.3545 22.307 10.3625 22.307C10.3705 22.299 10.3865 22.299 10.4024 22.315L10.6022 22.6026L16.6982 31.487C16.7062 31.495 16.7222 31.503 16.7302 31.495L21.3801 28.2033C21.3881 28.1953 21.4041 28.1953 21.4121 28.2033L26.2618 31.495C26.2698 31.503 26.2857 31.503 26.2937 31.487L32.4617 22.5227L32.6055 22.315C32.6215 22.291 32.6535 22.307 32.6455 22.3309Z" stroke="#231F20" stroke-miterlimit="10"/>
<path d="M32.6457 22.3708L26.4617 31.0635C26.4218 31.0715 26.4058 31.0715 26.3659 31.0795L21.4123 27.8277C21.3804 27.8277 21.3644 27.8277 21.3324 27.8277L16.5866 31.0795C16.5467 31.0715 16.5307 31.0715 16.4907 31.0635L10.3627 22.4108C10.3387 22.3708 10.3787 22.3309 10.4186 22.3549C11.8408 23.2417 16.251 23.8889 21.4682 23.8889C26.7653 23.8889 31.2315 23.2177 32.5818 22.3149C32.6297 22.283 32.6697 22.3309 32.6457 22.3708Z" stroke="#231F20" stroke-miterlimit="10"/>
<path d="M15.5238 39.7722C15.2681 39.6284 15.0604 39.4366 14.9166 39.189C14.7728 38.9413 14.6929 38.6616 14.6929 38.3501C14.6929 38.0385 14.7648 37.7588 14.9166 37.5111C15.0604 37.2635 15.2681 37.0637 15.5238 36.9279C15.7795 36.7841 16.0751 36.7122 16.3947 36.7122C16.6423 36.7122 16.874 36.7521 17.0818 36.84C17.2895 36.9279 17.4653 37.0478 17.6091 37.2155L17.3135 37.5032C17.0738 37.2475 16.7702 37.1197 16.4106 37.1197C16.1709 37.1197 15.9552 37.1756 15.7635 37.2794C15.5717 37.3833 15.4199 37.5351 15.3161 37.7189C15.2042 37.9106 15.1563 38.1184 15.1563 38.3501C15.1563 38.5818 15.2122 38.7895 15.3161 38.9812C15.4279 39.165 15.5717 39.3168 15.7635 39.4207C15.9552 39.5245 16.1709 39.5805 16.4106 39.5805C16.7702 39.5805 17.0658 39.4526 17.3135 39.197L17.6091 39.4846C17.4653 39.6524 17.2815 39.7722 17.0738 39.8601C16.866 39.948 16.6343 39.9879 16.3867 39.9879C16.0671 39.9879 15.7795 39.916 15.5238 39.7722Z" fill="black"/>
<path d="M19.822 37.7509C19.9978 37.9186 20.0936 38.1583 20.0936 38.4859V39.948H19.6782V39.6284C19.6063 39.7403 19.5024 39.8281 19.3666 39.8841C19.2308 39.94 19.071 39.972 18.8872 39.972C18.6156 39.972 18.3998 39.908 18.2321 39.7722C18.0723 39.6444 17.9844 39.4686 17.9844 39.2529C17.9844 39.0372 18.0643 38.8694 18.2161 38.7416C18.3679 38.6137 18.6156 38.5498 18.9591 38.5498H19.6542V38.4619C19.6542 38.2702 19.5983 38.1264 19.4864 38.0305C19.3746 37.9266 19.2148 37.8787 18.9991 37.8787C18.8552 37.8787 18.7114 37.9027 18.5756 37.9506C18.4398 37.9985 18.3199 38.0624 18.2241 38.1423L18.0403 37.8148C18.1681 37.7109 18.3119 37.639 18.4877 37.5831C18.6635 37.5271 18.8473 37.5032 19.039 37.5032C19.3905 37.5032 19.6462 37.5831 19.822 37.7509ZM19.3905 39.5245C19.5104 39.4526 19.5983 39.3408 19.6542 39.205V38.8694H18.9751C18.5996 38.8694 18.4158 38.9972 18.4158 39.2449C18.4158 39.3647 18.4637 39.4606 18.5596 39.5325C18.6555 39.6044 18.7833 39.6364 18.9511 39.6364C19.1189 39.6364 19.2627 39.6044 19.3905 39.5245Z" fill="black"/>
<path d="M21.8515 38.8214L21.3481 39.2848V39.948H20.9087V36.5524H21.3481V38.7336L22.6744 37.5271H23.2017L22.179 38.5338L23.2976 39.956H22.7543L21.8515 38.8214Z" fill="black"/>
<path d="M25.8144 38.8854H23.8489C23.8729 39.1011 23.9688 39.2689 24.1286 39.3967C24.2883 39.5245 24.4881 39.5885 24.7278 39.5885C25.0154 39.5885 25.2551 39.4926 25.4309 39.2928L25.6705 39.5805C25.5587 39.7083 25.4229 39.8042 25.2631 39.8761C25.1033 39.94 24.9195 39.9799 24.7198 39.9799C24.4641 39.9799 24.2324 39.924 24.0407 39.8202C23.8409 39.7163 23.6891 39.5645 23.5773 39.3807C23.4654 39.189 23.4175 38.9813 23.4175 38.7416C23.4175 38.5099 23.4734 38.2941 23.5773 38.1024C23.6811 37.9106 23.8249 37.7668 24.0087 37.663C24.1925 37.5591 24.4002 37.5032 24.6319 37.5032C24.8636 37.5032 25.0713 37.5591 25.2551 37.663C25.4388 37.7668 25.5747 37.9186 25.6785 38.1024C25.7824 38.2941 25.8303 38.5099 25.8303 38.7496C25.8224 38.7815 25.8144 38.8294 25.8144 38.8854ZM24.0886 38.0624C23.9448 38.1903 23.8649 38.3581 23.8409 38.5658H25.3989C25.3749 38.3581 25.295 38.1983 25.1512 38.0624C25.0074 37.9346 24.8316 37.8707 24.6239 37.8707C24.4082 37.8707 24.2324 37.9346 24.0886 38.0624Z" fill="black"/>
<path d="M26.5496 39.9001C26.3658 39.8441 26.222 39.7802 26.1182 39.7003L26.3019 39.3488C26.4058 39.4287 26.5416 39.4846 26.6934 39.5325C26.8452 39.5805 26.997 39.6044 27.1568 39.6044C27.5403 39.6044 27.7321 39.4926 27.7321 39.2769C27.7321 39.205 27.7081 39.149 27.6522 39.1011C27.5962 39.0611 27.5323 39.0292 27.4604 39.0052C27.3805 38.9892 27.2687 38.9653 27.1249 38.9413C26.9331 38.9093 26.7733 38.8774 26.6455 38.8374C26.5256 38.7975 26.4138 38.7336 26.3259 38.6377C26.238 38.5418 26.1901 38.414 26.1901 38.2382C26.1901 38.0145 26.278 37.8387 26.4617 37.7109C26.6455 37.5751 26.8932 37.5112 27.1968 37.5112C27.3566 37.5112 27.5163 37.5271 27.6841 37.5671C27.8439 37.607 27.9797 37.663 28.0836 37.7269L27.8998 38.0784C27.7001 37.9506 27.4684 37.8867 27.1968 37.8867C27.013 37.8867 26.8692 37.9186 26.7733 37.9746C26.6774 38.0385 26.6295 38.1184 26.6295 38.2143C26.6295 38.2941 26.6535 38.3581 26.7094 38.398C26.7653 38.446 26.8292 38.4779 26.9091 38.5019C26.989 38.5258 27.1009 38.5498 27.2527 38.5738C27.4444 38.6057 27.6042 38.6457 27.7241 38.6776C27.8439 38.7176 27.9478 38.7815 28.0357 38.8694C28.1236 38.9573 28.1635 39.0931 28.1635 39.2529C28.1635 39.4686 28.0676 39.6444 27.8839 39.7802C27.7001 39.908 27.4444 39.972 27.1169 39.972C26.9251 39.9799 26.7334 39.948 26.5496 39.9001Z" fill="black"/>
</g>
<defs>
<clipPath id="clip0">
<rect width="43" height="43" fill="white"/>
</clipPath>
</defs>
</svg>
