<svg width="57" height="29" viewBox="0 0 57 29" fill="none" xmlns="http://www.w3.org/2000/svg">
<path d="M0 0H17.0062C19.8406 0 22.0136 0.695255 23.5326 2.0786C25.0515 3.46194 25.8073 5.17499 25.8073 7.21775C25.8073 8.9308 25.2623 10.4001 24.1794 11.6258C23.4599 12.4429 22.3988 13.088 21.0107 13.561C23.1256 14.0628 24.6736 14.9229 25.6765 16.1414C26.6722 17.3599 27.1737 18.8937 27.1737 20.743C27.1737 22.2481 26.8175 23.5956 26.1126 24.7998C25.4004 25.9968 24.4338 26.9501 23.2055 27.6453C22.4424 28.0826 21.2941 28.3979 19.7534 28.5986C17.7039 28.8638 16.3522 28.9928 15.6835 28.9928H0V0ZM9.16448 10.0274H13.1181C14.5353 10.0274 15.5237 9.78374 16.076 9.30351C16.6283 8.82328 16.6501 8.23554 16.6501 7.84849C16.6501 7.50445 16.6283 7.06006 16.076 6.587C15.5237 6.11394 14.5571 5.87741 13.1762 5.87741H9.16448V10.0274ZM9.16448 21.345H13.8012C15.3638 21.345 16.4684 21.0727 17.108 20.5208C17.7475 19.976 17.8057 19.3453 17.8057 18.9081C17.8057 18.5568 17.7548 18.1913 17.1225 17.6752C16.4902 17.152 15.371 16.894 13.7867 16.894H9.17175V21.345H9.16448Z" fill="white"/>
<path d="M22.4424 0H31.0691L34.027 8.62259L35.9166 0H43.1842L44.9793 8.62259L48.4169 0H56.9999L50.5172 29H41.6144L39.7248 20.3129L37.9951 29H28.9832L22.4424 0Z" fill="white"/>
<path d="M2.02734 17.6752C2.02734 17.0445 2.12182 16.2919 2.31805 15.4175C2.51427 14.543 2.84859 13.7259 3.32825 12.9662C3.37185 12.8945 3.48087 12.7081 3.65529 12.4142C3.82972 12.1204 3.9678 11.891 4.07681 11.719C4.16403 11.5326 4.27304 11.375 4.40386 11.2459C4.53467 11.1169 4.6873 10.9234 4.86172 10.6654C4.92713 10.5507 5.04341 10.4002 5.2033 10.2066C5.36318 10.0131 5.54488 9.81242 5.7411 9.61173C5.93733 9.41104 6.12629 9.21034 6.31524 9.01682C6.49693 8.8233 6.65682 8.67278 6.78764 8.5581C7.46353 7.97035 8.22663 7.33961 9.09148 6.67302C9.94906 6.00644 10.8648 5.3972 11.8314 4.83096C12.798 4.26472 13.8082 3.79883 14.8547 3.43328C15.9012 3.06774 16.9623 2.88138 18.0525 2.88138C18.3795 2.88138 18.6629 2.94589 18.9028 3.0749C19.1426 3.20392 19.4042 3.27559 19.6877 3.2971L19.5569 3.51929H19.9493C19.9711 3.77732 20.0075 3.97802 20.0656 4.1142C20.1165 4.25038 20.1601 4.39374 20.1964 4.52992C20.2327 4.6661 20.2473 4.82379 20.2618 5.00298C20.2691 5.18217 20.2473 5.41153 20.1819 5.71257C20.0947 6.04228 19.9566 6.42216 19.7604 6.83788C19.5641 7.2536 19.3824 7.61914 19.208 7.93452C19.099 8.09937 18.8955 8.37174 18.6048 8.73729C18.3141 9.10283 17.9798 9.47554 17.6091 9.84826C17.2385 10.221 16.8606 10.5507 16.4681 10.8446C16.0757 11.1384 15.7414 11.2961 15.4579 11.3176L15.6178 11.5398C15.487 11.5398 15.3416 11.5756 15.1745 11.6545C15.0073 11.7333 14.8547 11.805 14.7021 11.891C14.5495 11.977 14.3896 12.0487 14.2297 12.1132C14.0698 12.1777 13.9099 12.1849 13.7791 12.1849H13.3866C13.1468 12.1849 12.9142 12.0487 12.6817 11.7692C12.4564 11.4896 12.3474 11.2459 12.3692 11.0237C12.4128 10.8374 12.5 10.6009 12.6308 10.3142C12.7616 10.0274 12.8561 9.81959 12.9215 9.69057C12.9869 9.57589 13.1032 9.42537 13.2631 9.23185C13.423 9.03832 13.6192 8.8448 13.8372 8.65127C14.0553 8.45775 14.2806 8.28573 14.5059 8.14238C14.7312 7.99902 14.9565 7.92018 15.1745 7.92018C15.0873 8.19972 14.8474 8.49359 14.455 8.80896C14.0625 9.12433 13.7064 9.44688 13.3794 9.77658C13.0523 10.1063 12.8706 10.4503 12.827 10.8015C12.7834 11.1528 13.0523 11.504 13.641 11.8552C13.859 11.7262 14.048 11.633 14.2152 11.5613C14.375 11.4968 14.5422 11.4323 14.7021 11.3678C14.862 11.3033 15.0364 11.2244 15.2108 11.1313C15.3852 11.0381 15.5815 10.9019 15.7995 10.7155C16.1701 10.4002 16.4608 10.1278 16.6789 9.89843C16.8969 9.66907 17.144 9.41104 17.4274 9.13867C17.5583 9.03116 17.7182 8.80896 17.9144 8.47208C18.1106 8.14238 18.2996 7.784 18.4885 7.40412C18.6702 7.02424 18.8374 6.65869 18.9754 6.29314C19.1135 5.93476 19.1862 5.66956 19.1862 5.50471C19.1862 5.37569 19.1935 5.20367 19.2153 4.98148C19.2371 4.75928 19.2225 4.53709 19.1644 4.31489C19.1063 4.0927 18.99 3.89917 18.8083 3.73432C18.6266 3.56947 18.3359 3.45478 17.9434 3.40461C17.442 3.33294 16.9187 3.36161 16.3591 3.49779C15.7995 3.63397 15.1817 3.806 14.4841 4.00669C14.375 4.04253 14.1643 4.1357 13.8445 4.28622C13.532 4.43674 13.1904 4.6016 12.8343 4.78795C12.4782 4.97431 12.1511 5.14633 11.8532 5.31119C11.5625 5.47604 11.388 5.57639 11.3444 5.61222C10.9084 5.96343 10.4796 6.28598 10.0581 6.57985C9.63655 6.87372 9.20049 7.21776 8.7717 7.60481C8.0304 8.23556 7.32544 8.94515 6.64955 9.75508C5.97366 10.5578 5.38499 11.3965 4.86899 12.2637C4.36025 13.131 3.95326 14.0198 3.64802 14.9229C3.34278 15.826 3.19016 16.7076 3.19016 17.5534C3.19016 17.6824 3.2265 17.8759 3.30645 18.134C3.37912 18.392 3.4736 18.6715 3.58262 18.9654C3.69163 19.2593 3.80791 19.546 3.92419 19.8255C4.04048 20.1051 4.15676 20.3129 4.26577 20.4634C4.39659 20.6641 4.60008 20.8577 4.88352 21.0297C5.16696 21.2089 5.45766 21.3594 5.7629 21.5027C6.06814 21.6389 6.37338 21.7464 6.67862 21.8181C6.98386 21.8898 7.23096 21.9256 7.42719 21.9256H8.34291C8.56094 21.9256 8.88072 21.8826 9.30951 21.7894C9.7383 21.6963 10.1889 21.5816 10.6613 21.4454C11.1409 21.3092 11.5988 21.1515 12.0349 20.9723C12.4709 20.7931 12.8198 20.6283 13.0814 20.4634C13.2558 20.3488 13.423 20.2269 13.5901 20.0907C13.7573 19.9545 13.8881 19.8542 13.9971 19.7969C14.1061 19.761 14.2588 19.6893 14.455 19.5747C14.6512 19.4671 14.7893 19.3883 14.8765 19.3525C15.0291 19.2593 15.1817 19.1374 15.3344 18.9941C15.487 18.8436 15.6469 18.7002 15.8068 18.5497C15.9667 18.3992 16.1411 18.2702 16.3155 18.1626C16.4899 18.0551 16.6716 17.9906 16.8678 17.9691C16.628 18.4493 16.1629 18.9439 15.4797 19.4528C14.7966 19.9617 14.0262 20.4204 13.1759 20.8361C12.3256 21.2519 11.4753 21.5959 10.6104 21.8754C9.75283 22.155 9.02607 22.2912 8.43739 22.2912C7.95773 22.3127 7.5144 22.327 7.11468 22.3485C6.71496 22.37 6.32251 22.3557 5.95913 22.3055C5.58848 22.2625 5.23237 22.1621 4.88352 22.0116C4.53467 21.8611 4.17856 21.6317 3.80791 21.3164C3.17563 20.7788 2.71777 20.1696 2.43433 19.4743C2.16543 18.7934 2.02734 18.1913 2.02734 17.6752Z" fill="black"/>
<path d="M24.8482 22.241V22.2697L24.8191 22.2983C24.3831 22.2983 23.9906 22.3772 23.6273 22.5349C23.2711 22.6926 22.9368 22.7714 22.6316 22.7714H21.7159C21.6505 22.6424 21.5705 22.5277 21.4688 22.4274C21.3743 22.327 21.2798 22.2267 21.1926 22.1335C21.1054 22.0403 21.0327 21.94 20.9673 21.8325C20.9019 21.7178 20.8728 21.5744 20.8728 21.3881V20.8075C20.8728 20.7 20.8728 20.6211 20.8728 20.5853C20.9164 20.5853 20.96 20.5495 21.0036 20.4778C20.8074 20.4993 20.5603 20.614 20.2696 20.8362C19.9789 21.0584 19.6519 21.2949 19.2885 21.5529C18.9324 21.811 18.569 22.0475 18.2129 22.2625C17.8568 22.4775 17.5079 22.5779 17.1809 22.5779H16.5268C16.396 22.3198 16.3015 22.026 16.2361 21.7034C16.1707 21.3809 16.3015 21.0082 16.6285 20.5781C16.6503 20.5423 16.7375 20.4491 16.8902 20.2986C17.0428 20.1481 17.2027 19.9976 17.3771 19.8255C17.5515 19.6607 17.7114 19.5102 17.8495 19.3668C17.9876 19.2306 18.0748 19.1589 18.0966 19.1589C18.3146 19.0873 18.5617 18.9296 18.8452 18.6859C19.1286 18.4494 19.4847 18.2272 19.9208 18.0193C20.335 17.8545 20.6984 17.6968 21.0109 17.5462C21.3234 17.3957 21.6723 17.3241 22.0429 17.3241C22.2173 17.3241 22.3336 17.3169 22.399 17.3097C22.4644 17.3025 22.5226 17.2954 22.5807 17.2954C22.6316 17.2954 22.697 17.3169 22.7769 17.3527C22.8496 17.3886 22.9877 17.4674 23.1839 17.5749L23.024 18.0193L23.4165 18.1053C23.4601 18.1985 23.4892 18.2558 23.511 18.2702C23.5328 18.2917 23.54 18.3562 23.54 18.4637C23.54 18.6285 23.4601 18.8077 23.3148 18.9869C23.1621 19.1733 22.995 19.374 22.806 19.5818C22.6243 19.7969 22.4499 20.0262 22.2973 20.2914C22.1447 20.5495 22.072 20.829 22.072 21.1229C22.072 21.4167 22.181 21.6103 22.399 21.6891C22.6171 21.7751 22.8787 21.7894 23.1839 21.7464C23.4892 21.7034 23.8017 21.6246 24.1287 21.5099C24.4558 21.4024 24.7247 21.2949 24.9427 21.2089L24.8482 22.241ZM19.6228 19.5245C19.3176 19.5603 19.0559 19.6535 18.8379 19.804C18.6199 19.9545 18.4382 20.1266 18.2855 20.3273C18.1329 20.528 17.9948 20.7358 17.8786 20.9508C17.755 21.1659 17.6533 21.3522 17.5661 21.5171C17.8277 21.4956 18.0748 21.4311 18.3001 21.3236C18.5254 21.216 18.7434 21.087 18.9542 20.9508C19.1649 20.8147 19.3684 20.6641 19.5719 20.5065C19.7754 20.3488 20.0152 20.2126 20.2769 20.1051C20.4077 20.0477 20.6039 19.933 20.8656 19.7467C21.1272 19.5603 21.3816 19.3596 21.6359 19.1518C21.883 18.9368 22.1011 18.7361 22.2755 18.5425C22.4499 18.349 22.5153 18.2128 22.4717 18.1412C22.2973 18.0695 22.072 18.0838 21.8031 18.1985C21.5269 18.306 21.2507 18.4494 20.9528 18.6142C20.6621 18.7791 20.3786 18.9368 20.1025 19.0873C19.8263 19.2378 19.6155 19.3095 19.4629 19.3095L19.6228 19.5245Z" fill="black"/>
<path d="M35.4869 21.3809C35.2252 21.5314 34.9563 21.6604 34.6729 21.7679C34.5857 21.8038 34.404 21.8683 34.1351 21.9615C33.8589 22.0546 33.5755 22.1478 33.2702 22.2553C32.965 22.3557 32.6816 22.456 32.4199 22.5492C32.1583 22.6424 32.0057 22.6997 31.9621 22.714C31.8312 22.6424 31.744 22.5922 31.7004 22.5635C31.6568 22.5349 31.635 22.5277 31.635 22.5349C31.635 22.542 31.635 22.5564 31.635 22.5779C31.635 22.5994 31.5914 22.6065 31.5042 22.6065C30.8719 22.6065 30.4141 22.4488 30.1306 22.1335C29.8472 21.8181 29.7309 21.4669 29.789 21.0798C29.8399 20.6928 30.0725 20.3272 30.4722 19.9832C30.8719 19.6392 31.4461 19.4456 32.1874 19.3883C32.1438 19.2951 32.1438 19.2306 32.1874 19.1804C32.231 19.1374 32.3109 19.0873 32.4345 19.0443C32.5507 19.0012 32.6888 18.9439 32.8414 18.8794C32.9941 18.8149 33.1467 18.7217 33.2993 18.5855C33.4519 18.4565 33.5682 18.3562 33.6554 18.2917C33.7426 18.2271 33.8153 18.1555 33.8807 18.0838C33.9461 18.0121 34.0115 17.9261 34.0769 17.8329C34.1424 17.7398 34.2296 17.6107 34.3386 17.4459C34.1424 17.3169 33.8662 17.3097 33.5028 17.4315C33.1467 17.5534 32.7542 17.7183 32.3472 17.9333C31.933 18.1483 31.5405 18.3777 31.1699 18.6285C30.7992 18.8794 30.5085 19.0658 30.2905 19.1948C30.0071 19.3955 29.7018 19.632 29.3748 19.9044C29.0477 20.1696 28.7207 20.4491 28.3937 20.7358C28.0666 21.0225 27.7541 21.2877 27.4489 21.5386C27.1436 21.7894 26.8602 21.9973 26.5986 22.1621H26.177L26.1116 21.8539C26.1116 21.6532 26.1916 21.4095 26.3587 21.1372C26.5186 20.8576 26.7076 20.5709 26.9111 20.2627C27.1146 19.9545 27.3108 19.6607 27.4852 19.3596C27.6596 19.0658 27.7468 18.8077 27.7468 18.5855L26.4096 19.6392L25.334 20.3344L25.5593 19.6965C25.6683 19.6033 25.7628 19.5316 25.8354 19.4743C25.9081 19.417 25.9735 19.374 26.0171 19.3381C26.1916 19.1876 26.4532 19.0156 26.802 18.8149C27.1509 18.6142 27.4416 18.4493 27.6814 18.3132C27.9649 18.1626 28.1829 17.9548 28.3355 17.6752C28.4881 17.3957 28.6408 17.1592 28.7934 16.9585C28.8588 16.8653 28.9097 16.7578 28.9387 16.6431C28.9678 16.5284 29.0114 16.4281 29.055 16.3492C29.164 16.1844 29.244 16.084 29.3021 16.0554C29.3602 16.0267 29.4402 15.9192 29.5492 15.74C29.68 15.5178 29.8036 15.3028 29.9271 15.1021C30.0434 14.9014 30.1742 14.6935 30.305 14.4928C30.4359 14.3065 30.5885 14.07 30.7629 13.7761C30.9373 13.4822 31.119 13.1883 31.3007 12.8873C31.4824 12.5934 31.6568 12.3354 31.8094 12.1132C31.9621 11.891 32.0783 11.762 32.1656 11.7262L32.0057 11.3104C32.2891 11.2173 32.5071 11.0452 32.6598 10.7872C32.8124 10.5292 32.9432 10.3285 33.0522 10.178C33.0958 10.1206 33.1685 10.0346 33.2775 9.91276C33.3865 9.79091 33.4883 9.66907 33.59 9.54005C33.6845 9.41103 33.7717 9.28918 33.8371 9.16734C33.9025 9.04549 33.9243 8.95231 33.9025 8.87347H34.295C34.2514 8.80179 34.2659 8.71578 34.324 8.6226C34.3894 8.52942 34.4694 8.43624 34.5711 8.32873C34.6729 8.22122 34.7819 8.12804 34.9127 8.02052C35.0435 7.92018 35.1526 7.83417 35.2398 7.75532C35.436 7.6048 35.5305 7.50446 35.5305 7.43278C35.5305 7.36827 35.6031 7.25359 35.7558 7.08874C35.843 7.01706 35.9157 6.96689 35.9665 6.93822C36.0174 6.90955 36.0755 6.88805 36.1264 6.86654C36.1773 6.84504 36.2354 6.83071 36.2863 6.8092C36.3372 6.79487 36.4099 6.75186 36.4971 6.67302C36.6933 6.5225 36.8314 6.41499 36.904 6.34331C36.9767 6.27164 37.0494 6.20713 37.1148 6.16412C37.1802 6.12112 37.2747 6.08528 37.391 6.07094C37.5073 6.04944 37.7326 6.03511 38.0596 6.0136C38.2994 6.0136 38.4884 5.9921 38.6337 5.95626C38.7718 5.92043 38.8954 5.89892 38.9899 5.88459C39.0843 5.87742 39.1861 5.87742 39.2806 5.88459C39.375 5.89175 39.5131 5.93476 39.6876 6.00644V6.50817C39.6439 6.96689 39.5131 7.39694 39.2951 7.79833C39.0771 8.19255 38.8154 8.57959 38.5102 8.94514L38.9971 9.16734H38.4084L37.1003 10.9664C36.9913 10.9879 36.8314 11.1026 36.6279 11.3104C36.4171 11.5255 36.1918 11.7692 35.9447 12.0415C35.6976 12.3211 35.4578 12.5791 35.2398 12.83C35.0217 13.0808 34.8473 13.26 34.7165 13.3675C34.2586 13.7761 33.8153 14.156 33.3792 14.5143C32.9432 14.8727 32.4999 15.2598 32.042 15.6612C31.8022 15.8618 31.5623 16.041 31.3225 16.1844C31.0827 16.3349 30.8428 16.4854 30.603 16.6431C30.3632 16.8008 30.1379 16.9585 29.9344 17.1305C29.7236 17.2954 29.5492 17.5032 29.3966 17.7398C29.3312 17.8329 29.2149 18.0193 29.0405 18.306C28.8661 18.5927 28.6916 18.8866 28.5172 19.1948C28.3428 19.4958 28.1902 19.7753 28.0593 20.0119C27.9285 20.2556 27.8631 20.3846 27.8631 20.3989C27.9285 20.4204 28.0448 20.3774 28.2192 20.2771C28.3937 20.1767 28.5753 20.0549 28.757 19.9044C28.9387 19.7538 29.1132 19.6105 29.2658 19.46C29.4184 19.3095 29.5129 19.2091 29.5565 19.1589C29.7309 19.0873 29.9707 18.9439 30.276 18.7289C30.5812 18.5138 30.9228 18.2845 31.308 18.0193C31.6859 17.7613 32.0929 17.5104 32.5144 17.2739C32.9359 17.0373 33.3502 16.851 33.7354 16.722C34.1278 16.5929 34.4839 16.5428 34.811 16.5714C35.138 16.6001 35.3851 16.7506 35.5595 17.0302L35.4651 17.6394C35.2688 17.7684 35.0871 17.8974 34.9273 18.0265C34.7674 18.1555 34.6002 18.2917 34.4403 18.4278C34.2804 18.564 34.0915 18.7074 33.888 18.8579C33.6772 19.0084 33.4229 19.1446 33.1176 19.2736C32.747 19.4385 32.4635 19.5675 32.2673 19.6463C32.0711 19.7252 31.8967 19.8112 31.744 19.8972C31.5914 19.9832 31.4461 20.0979 31.3007 20.2412C31.1554 20.3918 30.9664 20.6139 30.7266 20.9078C30.792 21.1085 30.8356 21.2805 30.8574 21.4095C30.8792 21.5386 30.9301 21.6389 31.0027 21.7106C31.0754 21.7823 31.2062 21.8396 31.3807 21.8754C31.5551 21.9113 31.8167 21.9399 32.1656 21.9615C32.2528 21.9615 32.3836 21.9399 32.558 21.9041C32.7324 21.8683 32.9141 21.8181 33.1103 21.7536C33.3066 21.6891 33.5028 21.6246 33.699 21.5601C33.8953 21.4956 34.0551 21.4382 34.186 21.3809C34.3386 21.2877 34.5057 21.1945 34.6947 21.1013C34.8764 21.0082 35.0799 20.9007 35.2979 20.7716L35.4869 21.3809ZM30.1306 16.5643C30.2614 16.4926 30.4141 16.3922 30.5885 16.2704C30.7629 16.1486 30.9373 16.0195 31.1118 15.8834C31.2862 15.7472 31.4533 15.6038 31.6205 15.4676C31.7876 15.3314 31.9185 15.2168 32.0275 15.1236C32.1147 15.0519 32.2382 14.9372 32.4054 14.7795C32.5653 14.6219 32.7397 14.4713 32.9141 14.3208C33.0885 14.1703 33.2557 14.0413 33.4229 13.9194C33.5827 13.7976 33.7208 13.7331 33.8298 13.7116C33.7862 13.6542 33.8371 13.5396 33.9752 13.3675C34.1133 13.1955 34.2804 13.0092 34.4621 12.8156C34.6438 12.6221 34.8328 12.4357 35.0145 12.2637C35.1962 12.0917 35.3342 11.9555 35.4215 11.8623C35.4651 11.8265 35.5523 11.7262 35.6831 11.5613C35.8139 11.3964 35.9593 11.2029 36.1264 10.9951C36.2936 10.7872 36.4535 10.5722 36.6133 10.3572C36.7732 10.1421 36.9113 9.98444 37.0203 9.86976C37.1075 9.74074 37.2674 9.48988 37.5073 9.10999C37.7471 8.73011 37.9724 8.3359 38.1904 7.93451C38.4084 7.52596 38.5683 7.15325 38.6628 6.8092C38.7573 6.46516 38.6992 6.25013 38.4811 6.15695C38.2195 6.06378 37.9215 6.13545 37.5799 6.37915C37.2456 6.61568 36.904 6.91672 36.5697 7.26793C36.2354 7.61914 35.9229 7.97752 35.6395 8.3359C35.356 8.69428 35.138 8.95231 34.9854 9.09566C34.8982 9.16734 34.7165 9.3967 34.4476 9.77658C34.1714 10.1565 33.8589 10.608 33.5028 11.1312C33.1467 11.6545 32.7688 12.2136 32.3763 12.8085C31.9839 13.4034 31.6278 13.9553 31.3007 14.4857C30.9737 15.0161 30.6975 15.4676 30.4649 15.8547C30.2324 16.2417 30.1306 16.4711 30.1306 16.5643ZM35.4215 20.0835V20.0549L35.7122 20.3057L35.4869 20.2771L35.4215 20.0835Z" fill="black"/>
<path d="M39.0128 21.94L37.2177 22.6352L35.975 22.7714H35.8442C35.4735 22.7714 35.1901 22.7212 34.9938 22.6209C34.7976 22.5205 34.6377 22.3843 34.5069 22.2195H34.536V22.0546L34.0781 21.087V21.001C34.0781 20.6498 34.2089 20.2269 34.4706 19.7252C34.7322 19.2234 35.0665 18.7576 35.4808 18.3132C35.895 17.8688 36.3602 17.5032 36.8834 17.2022C37.4067 16.9083 37.93 16.765 38.4532 16.7865C38.8457 16.808 39.0492 16.9227 39.0565 17.1305C39.0637 17.3455 38.962 17.6036 38.7294 17.9189C38.5041 18.2343 38.1989 18.5784 37.8137 18.9439C37.4358 19.3166 37.0506 19.6678 36.6727 20.0119C36.2948 20.3559 35.9459 20.6498 35.6407 20.9007C35.3354 21.1515 35.161 21.3092 35.1174 21.388L35.9677 22.1335C36.6436 22.1335 37.2759 22.0761 37.8573 21.9686C38.446 21.8539 38.9547 21.6532 39.3908 21.3594C39.4344 21.3235 39.4634 21.302 39.4852 21.302L39.0128 21.94ZM35.161 20.5781L35.1901 20.2484H35.4517V20.4419C35.6261 20.3344 35.8514 20.1481 36.1349 19.9044C36.4183 19.6535 36.6872 19.3883 36.9488 19.1016C37.2105 18.8149 37.4358 18.5425 37.632 18.2845C37.8282 18.0265 37.9227 17.8329 37.9227 17.7039C37.9227 17.6107 37.9009 17.5319 37.8573 17.4674C37.8137 17.4029 37.7483 17.367 37.6611 17.367C37.3994 17.367 37.1305 17.4961 36.8471 17.7541C36.5637 18.0121 36.302 18.306 36.0622 18.6285C35.8224 18.9511 35.6189 19.2664 35.4444 19.5675C35.27 19.8757 35.1537 20.062 35.0883 20.1337L35.161 20.5781Z" fill="black"/>
<path d="M40.3497 20.7358C40.5459 20.6641 40.7421 20.5853 40.9383 20.5136C41.1346 20.4419 41.2872 20.3631 41.3962 20.2914C41.4834 20.2198 41.6215 20.1194 41.8177 19.9976C42.0139 19.8757 42.2174 19.761 42.4209 19.6392C42.6244 19.5173 42.8207 19.4242 42.9951 19.3453C43.1695 19.2736 43.2858 19.245 43.3512 19.2593L43.4457 18.8436H44.0634L43.9326 18.6501C44.107 18.6286 44.4268 18.4995 44.8992 18.263C45.3643 18.0265 45.8513 17.8043 46.3527 17.6108C46.8542 17.4172 47.3193 17.3241 47.7554 17.3312C48.1914 17.3384 48.4603 17.5821 48.5694 18.0623C48.6566 18.435 48.5766 18.7791 48.344 19.1016C48.1042 19.4242 47.8062 19.7252 47.4429 20.0047C47.0868 20.2843 46.7234 20.5423 46.3673 20.7788C46.0111 21.0225 45.7495 21.2304 45.5969 21.4167C45.7495 21.3952 46.0111 21.3307 46.3818 21.2232C46.7524 21.1085 47.1667 20.9723 47.6391 20.7932C48.1042 20.6211 48.5912 20.4204 49.0926 20.1983C49.5941 19.9761 50.0011 19.8184 50.2918 19.3811L50.7932 19.6033C50.6116 20.0047 49.9575 20.3846 49.5359 20.5996C49.1144 20.8147 48.8455 20.958 48.7365 21.0297L46.062 21.9185C45.5824 21.9185 45.2698 21.9543 45.1318 22.026C44.9864 22.0977 44.8338 22.1407 44.6594 22.1407C44.2669 22.1407 43.9035 22.069 43.5692 21.9328C43.2349 21.7966 43.0605 21.5386 43.0605 21.173C43.0605 20.8792 43.1404 20.6355 43.3076 20.4563C43.4675 20.2699 43.6419 20.1409 43.8163 20.0549C43.9907 19.9689 44.1506 19.9402 44.3032 19.9546C44.4559 19.9761 44.5285 20.0406 44.5285 20.1481C44.5285 20.1696 44.4995 20.2413 44.4341 20.3703C44.3687 20.4993 44.3032 20.6426 44.2378 20.8003C44.1724 20.958 44.078 21.173 43.9471 21.4526C44.1434 21.4526 44.3469 21.4239 44.5503 21.3666C44.7538 21.3092 44.9428 21.2447 45.1027 21.1587C45.2626 21.0727 45.3934 20.9795 45.4951 20.8792C45.5969 20.7788 45.6332 20.7 45.6114 20.6426C45.8295 20.6211 46.0329 20.5136 46.2292 20.3129C46.4254 20.1122 46.6071 19.8757 46.767 19.6177C46.9269 19.3596 47.0577 19.0944 47.1594 18.8149C47.2612 18.5354 47.3193 18.306 47.3411 18.1197C47.1449 17.9906 46.8978 17.962 46.6071 18.0336C46.3164 18.1053 45.9893 18.2272 45.6405 18.392C45.2916 18.5569 44.9573 18.7432 44.6303 18.9439C44.3032 19.1446 44.0125 19.3023 43.7509 19.417C43.6855 19.4528 43.5692 19.5173 43.3948 19.6105C43.2204 19.7037 43.0387 19.8112 42.8425 19.9259C42.6462 20.0477 42.4645 20.1624 42.2901 20.2699C42.1157 20.3774 41.9994 20.4635 41.934 20.5208C41.6288 20.7215 41.3017 20.8935 40.9529 21.0297C40.604 21.1659 40.3424 21.3092 40.168 21.4597L40.3497 20.7358Z" fill="black"/>
<path d="M31.3445 5.18216L30.1526 1.27584L30.2035 1.31167L24.4694 1.38335L24.5856 1.24L25.4868 5.07465L25.6758 5.87742L25.2034 5.18216C24.6583 4.3794 23.8516 3.71998 22.9795 3.25409C22.0928 2.78819 21.1117 2.53016 20.1161 2.45132C19.1277 2.39398 18.0811 2.44415 17.0564 2.44415L13.9749 2.45849L1.66355 2.37248L1.92518 2.11444V15.0734L1.88884 28.0252L1.67081 27.8102L15.8572 27.9607H15.85C17.4052 27.846 18.9605 27.631 20.4794 27.2583C21.2353 27.0648 21.9838 26.8354 22.6888 26.5057C23.3865 26.176 24.0842 25.7459 24.4548 25.0507C24.0987 25.7531 23.401 26.2118 22.7106 26.5559C22.0056 26.9071 21.2571 27.1579 20.5012 27.3658C18.9823 27.7744 17.427 28.0324 15.8572 28.1829H15.85L1.67081 28.2402H1.45279V28.0252L1.41645 15.0734L1.40918 2.12161V1.86358H1.67081L13.9749 1.99976L17.0491 2.02126C18.0738 2.04277 19.0913 1.99259 20.1451 2.07144C22.2309 2.25063 24.2804 3.26842 25.465 5.03165L25.1816 5.13916L24.3531 1.29017L24.324 1.14682H24.4694L30.2035 1.2185H30.2399L30.2471 1.25433L31.3445 5.18216Z" fill="black"/>
<path d="M29.1729 24.764C29.529 25.8248 29.8342 26.8999 30.1249 27.975L29.9214 27.8174C31.0842 27.7672 32.2471 27.76 33.4099 27.7529C34.5727 27.76 35.7355 27.7672 36.8983 27.8174L36.6948 27.9679C37.051 26.8927 37.4143 25.8248 37.8359 24.7711C37.6324 25.8893 37.3635 26.9859 37.0946 28.0826L37.0582 28.2259L36.8911 28.2331C35.7283 28.2833 34.5654 28.2904 33.4026 28.2976C32.2398 28.2904 31.077 28.2833 29.9142 28.2331L29.7397 28.2259L29.7107 28.0754C29.5144 26.9716 29.3182 25.875 29.1729 24.764Z" fill="black"/>
<path d="M41.8975 24.764C42.2899 25.8176 42.6242 26.8927 42.9513 27.9679L42.7478 27.8102C43.8306 27.7672 44.9135 27.76 46.0037 27.7529C47.0865 27.76 48.1694 27.7672 49.2596 27.8102L49.0561 27.9679C49.3904 26.8927 49.732 25.8248 50.139 24.764C49.9573 25.875 49.7174 26.9788 49.4703 28.0754L49.434 28.2259L49.2596 28.2331C48.1767 28.2761 47.0938 28.2833 46.0037 28.2904C44.9208 28.2833 43.8379 28.2761 42.7478 28.2331L42.5734 28.2259L42.537 28.0754C42.2972 26.9788 42.0646 25.8821 41.8975 24.764Z" fill="black"/>
<path d="M50.2703 19.4886L51.4477 15.0591L52.5596 10.608L54.7762 1.70588L54.9579 1.93524L49.6017 1.90657L49.7543 1.80623L44.9359 14.5287L44.8196 14.844L44.7469 14.5215L41.9561 1.75605L41.9998 1.78473L37.4357 1.76322L37.4502 1.74889L36.5127 5.21799L37.4211 1.74172V1.73455H37.4357L41.9998 1.71305H42.0288L42.0361 1.74172L44.9431 14.4785L44.7542 14.4642L49.4491 1.69155L49.4927 1.5912H49.6017L54.9579 1.56253H55.1905L55.1396 1.79189L53.0029 10.7155L51.9346 15.1738L50.8009 19.6248L50.2703 19.4886Z" fill="black"/>
</svg>
