<svg width="74" height="71" viewBox="0 0 74 71" fill="none" xmlns="http://www.w3.org/2000/svg">
<path d="M57.8125 1.10938H16.1875C11.0873 1.10938 6.9375 5.09092 6.9375 9.98438V62.125C6.9375 66.4072 10.5693 69.8906 15.0312 69.8906H65.9062C66.5457 69.8906 67.0625 69.3936 67.0625 68.7812V9.98438C67.0625 5.09092 62.9127 1.10938 57.8125 1.10938ZM9.25 9.98438C9.25 6.31345 12.3615 3.32812 16.1875 3.32812H57.8125C61.6385 3.32812 64.75 6.31345 64.75 9.98438V54.3594H15.0312C12.7685 54.3594 10.7196 55.2546 9.25 56.6946V9.98438ZM15.0312 67.6719C11.8435 67.6719 9.25 65.1835 9.25 62.125C9.25 59.0665 11.8435 56.5781 15.0312 56.5781H64.75V58.7969H15.0312C13.1188 58.7969 11.5625 60.2901 11.5625 62.125C11.5625 63.9599 13.1188 65.4531 15.0312 65.4531H64.75V67.6719H15.0312ZM64.75 61.0156V63.2344H15.0312C14.393 63.2344 13.875 62.7363 13.875 62.125C13.875 61.5137 14.393 61.0156 15.0312 61.0156H64.75Z" fill="white"/>
<path d="M24.2812 29.8921V44.375C24.2812 44.9874 24.7981 45.4844 25.4375 45.4844H48.5625C49.2019 45.4844 49.7188 44.9874 49.7188 44.375V29.8921C54.9149 29.3385 58.9688 25.0996 58.9688 19.9688C58.9688 14.464 54.301 9.98438 48.5625 9.98438C47.6433 9.98438 46.7426 10.1064 45.8673 10.3316C44.0358 7.46831 40.752 5.54688 37 5.54688C33.248 5.54688 29.9642 7.46831 28.1327 10.3316C27.2574 10.1064 26.3567 9.98438 25.4375 9.98438C19.699 9.98438 15.0312 14.464 15.0312 19.9688C15.0312 25.0996 19.0851 29.3385 24.2812 29.8921ZM26.5938 43.2656V41.0469H47.4062V43.2656H26.5938ZM25.4375 12.2031C26.0133 12.2031 26.5799 12.2653 27.1337 12.3795C26.788 13.3713 26.5938 14.4285 26.5938 15.5312H28.9062C28.9062 11.2491 32.538 7.76562 37 7.76562C41.462 7.76562 45.0938 11.2491 45.0938 15.5312H47.4062C47.4062 14.4285 47.212 13.3713 46.8663 12.3795C47.4201 12.2653 47.9867 12.2031 48.5625 12.2031C53.0245 12.2031 56.6562 15.6866 56.6562 19.9688C56.6562 24.2509 53.0245 27.7344 48.5625 27.7344C47.9231 27.7344 47.4062 28.2314 47.4062 28.8438V38.8281H26.5938V28.8438C26.5938 28.2314 26.0769 27.7344 25.4375 27.7344C20.9755 27.7344 17.3438 24.2509 17.3438 19.9688C17.3438 15.6866 20.9755 12.2031 25.4375 12.2031Z" fill="white"/>
<path d="M54.3438 19.9688H52.0313C52.0313 21.8037 50.4749 23.2969 48.5625 23.2969V25.5156C51.7503 25.5156 54.3438 23.0273 54.3438 19.9688Z" fill="white"/>
<path d="M21.9688 47.7031H52.0312V49.9219H21.9688V47.7031Z" fill="white"/>
</svg>
